<svg width="36" height="36" viewBox="0 0 36 36" fill="none" xmlns="http://www.w3.org/2000/svg">
<path fill-rule="evenodd" clip-rule="evenodd" d="M26.49 8.81784C26.0996 8.4275 25.4658 8.4284 25.0744 8.81983L8.94568 24.9486C8.55421 25.34 8.55335 25.9738 8.94368 26.3641C9.33404 26.7545 9.96776 26.7536 10.3592 26.3621L26.488 10.2334C26.8794 9.84196 26.8803 9.2082 26.49 8.81784Z" fill="white" stroke="white" stroke-width="3"/>
<path fill-rule="evenodd" clip-rule="evenodd" d="M26.4879 24.9486L10.3592 8.81984C9.96775 8.4284 9.33237 8.4291 8.94009 8.82138C8.54778 9.21369 8.54712 9.84903 8.93855 10.2405L25.0673 26.3692C25.4587 26.7607 26.0941 26.76 26.4864 26.3677C26.8787 25.9754 26.8794 25.34 26.4879 24.9486Z" fill="white" stroke="white" stroke-width="3"/>
</svg>
